<svg width="25" height="24" viewBox="0 0 25 24" fill="none" xmlns="http://www.w3.org/2000/svg">
<g id="basil:sort-outline">
<path id="Vector" d="M13.8169 7.53001C13.9575 7.67046 14.1481 7.74935 14.3469 7.74935C14.5456 7.74935 14.7363 7.67046 14.8769 7.53001L15.5969 6.81001V17C15.5969 17.1989 15.6759 17.3897 15.8166 17.5303C15.9572 17.671 16.148 17.75 16.3469 17.75C16.5458 17.75 16.7366 17.671 16.8772 17.5303C17.0179 17.3897 17.0969 17.1989 17.0969 17V6.81001L17.8169 7.53001C17.8856 7.6037 17.9684 7.6628 18.0604 7.70379C18.1524 7.74478 18.2517 7.76683 18.3524 7.7686C18.4531 7.77038 18.5531 7.75186 18.6465 7.71413C18.7399 7.67641 18.8247 7.62027 18.8959 7.54905C18.9672 7.47783 19.0233 7.393 19.061 7.29961C19.0987 7.20622 19.1173 7.10619 19.1155 7.00549C19.1137 6.90479 19.0917 6.80547 19.0507 6.71347C19.0097 6.62147 18.9506 6.53867 18.8769 6.47001L16.8769 4.47001C16.7363 4.32956 16.5456 4.25067 16.3469 4.25067C16.1481 4.25067 15.9575 4.32956 15.8169 4.47001L13.8169 6.47001C13.6764 6.61064 13.5976 6.80126 13.5976 7.00001C13.5976 7.19876 13.6764 7.38939 13.8169 7.53001ZM9.09689 17.19L9.81689 16.47C9.88556 16.3963 9.96836 16.3372 10.0604 16.2962C10.1524 16.2552 10.2517 16.2332 10.3524 16.2314C10.4531 16.2296 10.5531 16.2482 10.6465 16.2859C10.7399 16.3236 10.8247 16.3798 10.8959 16.451C10.9672 16.5222 11.0233 16.607 11.061 16.7004C11.0987 16.7938 11.1173 16.8938 11.1155 16.9945C11.1137 17.0952 11.0917 17.1946 11.0507 17.2866C11.0097 17.3786 10.9506 17.4614 10.8769 17.53L8.87689 19.53C8.73627 19.6705 8.54564 19.7494 8.34689 19.7494C8.14814 19.7494 7.95752 19.6705 7.81689 19.53L5.81689 17.53C5.74321 17.4614 5.6841 17.3786 5.64311 17.2866C5.60212 17.1946 5.58008 17.0952 5.5783 16.9945C5.57653 16.8938 5.59505 16.7938 5.63277 16.7004C5.67049 16.607 5.72664 16.5222 5.79786 16.451C5.86907 16.3798 5.95391 16.3236 6.0473 16.2859C6.14068 16.2482 6.24071 16.2296 6.34142 16.2314C6.44212 16.2332 6.54143 16.2552 6.63343 16.2962C6.72543 16.3372 6.80823 16.3963 6.87689 16.47L7.59689 17.19V7.00001C7.59689 6.8011 7.67591 6.61033 7.81656 6.46968C7.95722 6.32903 8.14798 6.25001 8.34689 6.25001C8.54581 6.25001 8.73657 6.32903 8.87722 6.46968C9.01788 6.61033 9.09689 6.8011 9.09689 7.00001V17.19Z" fill="#2C97CF" fill-opacity="0.8"/>
</g>
</svg>
