<svg width="34" height="35" viewBox="0 0 34 35" fill="none" xmlns="http://www.w3.org/2000/svg">
<g id="bi:info">
<path id="Vector" d="M18.9761 14.2078L14.1099 14.8158L13.9356 15.6207L14.8919 15.7965C15.5166 15.9448 15.6399 16.1693 15.5039 16.7899L13.9356 24.1358C13.5234 26.0358 14.1588 26.9297 15.6526 26.9297C16.8108 26.9297 18.1559 26.3959 18.7658 25.663L18.9528 24.7818C18.5278 25.1546 17.9073 25.3029 17.495 25.3029C16.9106 25.3029 16.6981 24.8941 16.849 24.1739L18.9761 14.2078ZM19.1249 9.78506C19.1249 10.3468 18.901 10.8856 18.5025 11.2828C18.104 11.6801 17.5635 11.9032 16.9999 11.9032C16.4363 11.9032 15.8958 11.6801 15.4973 11.2828C15.0988 10.8856 14.8749 10.3468 14.8749 9.78506C14.8749 9.22328 15.0988 8.68451 15.4973 8.28727C15.8958 7.89004 16.4363 7.66687 16.9999 7.66687C17.5635 7.66687 18.104 7.89004 18.5025 8.28727C18.901 8.68451 19.1249 9.22328 19.1249 9.78506Z" fill="#2C97CF"/>
</g>
</svg>
