<svg width="54" height="54" viewBox="0 0 54 54" fill="none" xmlns="http://www.w3.org/2000/svg">
<g id="eos-icons:ai-operator" clip-path="url(#clip0_245_1201)">
<path id="Vector" d="M18.801 11.25H15.7725L11.25 29.25H13.563L14.607 25.0312H19.818L20.835 29.25H23.2245L18.801 11.25ZM14.9107 23.2245L17.199 13.3875H17.3003L19.5143 23.2267L14.9107 23.2245ZM25.2855 29.25V11.25H27.5355V29.25H25.2855ZM25.7063 31.5H9V9H31.5V19.755C34.1631 18.0353 37.3842 17.4024 40.5 17.9865V13.5H36V9C35.9964 7.80762 35.5212 6.6651 34.678 5.82195C33.8349 4.97881 32.6924 4.50356 31.5 4.5H27V0H22.5V4.5H18V0H13.5V4.5H9C7.80762 4.50356 6.6651 4.97881 5.82195 5.82195C4.97881 6.6651 4.50356 7.80762 4.5 9V13.5H0V18H4.5V22.5H0V27H4.5V31.5C4.50356 32.6924 4.97881 33.8349 5.82195 34.678C6.6651 35.5212 7.80762 35.9964 9 36H13.5V40.5H18V36H22.5V40.5H27V36.018C26.2865 34.6075 25.8475 33.0743 25.7063 31.5ZM30.375 30.375C30.375 28.8175 30.8369 27.2949 31.7022 25.9999C32.5675 24.7048 33.7974 23.6955 35.2364 23.0994C36.6753 22.5034 38.2587 22.3475 39.7863 22.6513C41.3139 22.9552 42.7171 23.7052 43.8185 24.8065C44.9198 25.9079 45.6698 27.3111 45.9737 28.8387C46.2775 30.3663 46.1216 31.9497 45.5256 33.3886C44.9295 34.8276 43.9202 36.0575 42.6251 36.9228C41.3301 37.7881 39.8075 38.25 38.25 38.25C37.2158 38.2503 36.1916 38.0468 35.236 37.6512C34.2804 37.2555 33.4122 36.6754 32.6809 35.9441C31.9496 35.2128 31.3695 34.3446 30.9738 33.389C30.5782 32.4334 30.3747 31.4092 30.375 30.375ZM38.25 42.75C32.994 42.75 22.5 45.3893 22.5 50.625V54H54V50.625C54 45.387 43.506 42.75 38.25 42.75Z" fill="#2C97CF"/>
</g>
<defs>
<clipPath id="clip0_245_1201">
<rect width="54" height="54" fill="white"/>
</clipPath>
</defs>
</svg>
