<svg width="25" height="24" viewBox="0 0 25 24" fill="none" xmlns="http://www.w3.org/2000/svg">
<g id="fluent-emoji-high-contrast:right-arrow">
<g id="Group">
<path id="Vector" d="M19.1224 11.7157C19.2569 11.8555 19.3321 12.0419 19.3321 12.2359C19.3321 12.4298 19.2569 12.6163 19.1224 12.756L15.2884 16.7407C14.8197 17.2275 13.9977 16.896 13.9977 16.221V13.9237C13.9977 13.874 13.9779 13.8263 13.9428 13.7912C13.9076 13.756 13.8599 13.7362 13.8102 13.7362H6.49768C6.29877 13.7362 6.108 13.6572 5.96735 13.5166C5.8267 13.3759 5.74768 13.1852 5.74768 12.9862V11.4862C5.74768 11.2873 5.8267 11.0966 5.96735 10.9559C6.108 10.8153 6.29877 10.7362 6.49768 10.7362H13.8102C13.8599 10.7362 13.9076 10.7165 13.9428 10.6813C13.9779 10.6462 13.9977 10.5985 13.9977 10.5487V8.2515C13.9977 7.5765 14.8197 7.245 15.2877 7.73175L19.1224 11.7157Z" fill="#2C97CF"/>
<path id="Vector_2" d="M4.99768 0.75C4.50522 0.75 4.01759 0.846997 3.56262 1.03545C3.10765 1.22391 2.69425 1.50013 2.34603 1.84835C1.64277 2.55161 1.24768 3.50544 1.24768 4.5V19.5C1.24768 20.4946 1.64277 21.4484 2.34603 22.1516C2.69425 22.4999 3.10765 22.7761 3.56262 22.9645C4.01759 23.153 4.50522 23.25 4.99768 23.25H19.9977C20.9922 23.25 21.9461 22.8549 22.6493 22.1516C23.3526 21.4484 23.7477 20.4946 23.7477 19.5V4.5C23.7477 4.00754 23.6507 3.51991 23.4622 3.06494C23.2738 2.60997 22.9976 2.19657 22.6493 1.84835C22.3011 1.50013 21.8877 1.22391 21.4327 1.03545C20.9778 0.846997 20.4901 0.75 19.9977 0.75H4.99768ZM2.74768 4.5C2.74768 3.90326 2.98473 3.33097 3.40669 2.90901C3.82865 2.48705 4.40094 2.25 4.99768 2.25H19.9977C20.5944 2.25 21.1667 2.48705 21.5887 2.90901C22.0106 3.33097 22.2477 3.90326 22.2477 4.5V19.5C22.2477 20.0967 22.0106 20.669 21.5887 21.091C21.1667 21.5129 20.5944 21.75 19.9977 21.75H4.99768C4.40094 21.75 3.82865 21.5129 3.40669 21.091C2.98473 20.669 2.74768 20.0967 2.74768 19.5V4.5Z" fill="#2C97CF"/>
</g>
</g>
</svg>
