<svg width="25" height="24" viewBox="0 0 25 24" fill="none" xmlns="http://www.w3.org/2000/svg">
<g id="fluent-emoji-high-contrast:right-arrow" clip-path="url(#clip0_245_1253)">
<g id="Group">
<path id="Vector" d="M5.55836 12.2843C5.42384 12.1445 5.3487 11.9581 5.3487 11.7641C5.3487 11.5702 5.42384 11.3837 5.55836 11.244L9.39235 7.25925C9.8611 6.7725 10.6831 7.104 10.6831 7.779V10.0763C10.6831 10.126 10.7029 10.1737 10.738 10.2088C10.7732 10.244 10.8209 10.2638 10.8706 10.2638H18.1831C18.382 10.2638 18.5728 10.3428 18.7134 10.4834C18.8541 10.6241 18.9331 10.8148 18.9331 11.0138V12.5138C18.9331 12.7127 18.8541 12.9034 18.7134 13.0441C18.5728 13.1847 18.382 13.2638 18.1831 13.2638H10.8706C10.8209 13.2638 10.7732 13.2835 10.738 13.3187C10.7029 13.3538 10.6831 13.4015 10.6831 13.4513V15.7485C10.6831 16.4235 9.86111 16.755 9.39311 16.2683L5.55836 12.2843Z" fill="#2C97CF" fill-opacity="0.5"/>
<path id="Vector_2" d="M19.6831 23.25C20.1756 23.25 20.6632 23.153 21.1182 22.9645C21.5731 22.7761 21.9865 22.4999 22.3348 22.1517C23.038 21.4484 23.4331 20.4946 23.4331 19.5V4.5C23.4331 3.50544 23.038 2.55161 22.3348 1.84835C21.9865 1.50013 21.5731 1.22391 21.1182 1.03545C20.6632 0.846996 20.1756 0.75 19.6831 0.75H4.6831C3.68854 0.75 2.73471 1.14509 2.03145 1.84835C1.32819 2.55161 0.933104 3.50544 0.933104 4.5V19.5C0.933104 19.9925 1.0301 20.4801 1.21856 20.9351C1.40701 21.39 1.68323 21.8034 2.03145 22.1517C2.37967 22.4999 2.79307 22.7761 3.24804 22.9645C3.70301 23.153 4.19065 23.25 4.6831 23.25H19.6831ZM21.9331 19.5C21.9331 20.0967 21.6961 20.669 21.2741 21.091C20.8521 21.5129 20.2798 21.75 19.6831 21.75H4.6831C4.08637 21.75 3.51407 21.5129 3.09211 21.091C2.67016 20.669 2.4331 20.0967 2.4331 19.5V4.5C2.4331 3.90326 2.67016 3.33097 3.09211 2.90901C3.51407 2.48705 4.08637 2.25 4.6831 2.25H19.6831C20.2798 2.25 20.8521 2.48705 21.2741 2.90901C21.6961 3.33097 21.9331 3.90326 21.9331 4.5V19.5Z" fill="#2C97CF" fill-opacity="0.5"/>
</g>
</g>
<defs>
<clipPath id="clip0_245_1253">
<rect width="24" height="24" fill="white" transform="matrix(-1 0 0 -1 24.1831 24)"/>
</clipPath>
</defs>
</svg>
