<svg width="54" height="54" viewBox="0 0 54 54" fill="none" xmlns="http://www.w3.org/2000/svg">
<g id="gis:route" clip-path="url(#clip0_245_1186)">
<path id="Vector" d="M11.34 17.28C5.10786 17.28 0 22.3722 0 28.5876C0 30.996 0.76896 33.2343 2.0709 35.0741L9.95652 48.7058C11.0608 50.1487 11.7952 49.8749 12.7138 48.6302L21.411 33.8288C21.5865 33.5102 21.7242 33.1722 21.8446 32.8266C22.3965 31.4815 22.6803 30.0415 22.68 28.5876C22.68 22.3722 17.5738 17.28 11.34 17.28ZM11.34 22.5785C14.6966 22.5785 17.3664 25.2412 17.3664 28.5881C17.3664 31.9351 14.6966 34.5967 11.34 34.5967C7.9839 34.5967 5.3136 31.9345 5.3136 28.5881C5.3136 25.2412 7.9839 22.5785 11.34 22.5785ZM47.385 0C43.7497 0 40.77 2.97054 40.77 6.59664C40.77 8.00118 41.2182 9.3069 41.978 10.3799L46.5782 18.3319C47.2225 19.1732 47.6507 19.0134 48.1864 18.2876L53.2597 9.65304C53.3623 9.46782 53.4427 9.27072 53.5124 9.06876C53.8344 8.28436 54.0001 7.44458 54 6.59664C54 2.97 51.0214 0 47.385 0ZM47.385 3.09096C49.343 3.09096 50.9004 4.644 50.9004 6.59664C50.9004 8.54874 49.343 10.1012 47.385 10.1012C45.4275 10.1012 43.8696 8.54874 43.8696 6.59664C43.8696 4.644 45.4275 3.09096 47.385 3.09096Z" fill="#2C97CF"/>
<path id="Vector_2" fill-rule="evenodd" clip-rule="evenodd" d="M47.6329 20.2025C46.4195 20.2295 45.2029 20.2808 43.9841 20.3709L44.172 23.3582C45.3427 23.2734 46.5155 23.2189 47.689 23.1946L47.6329 20.2025ZM41.1664 20.6453C39.2926 20.878 37.4026 21.2096 35.5342 21.7425L36.2378 24.6375C37.9355 24.1536 39.6949 23.841 41.4817 23.619L41.1664 20.6453ZM32.7364 22.7448C32.1766 22.9919 31.6346 23.2775 31.1143 23.5996L31.1121 23.6023L31.1089 23.6034C30.3664 24.071 29.5839 24.6645 28.9451 25.5269C28.4823 26.1516 28.1038 26.9417 28.0152 27.8759L30.7665 28.181C30.787 27.9617 30.8993 27.6723 31.1013 27.4001H31.1024V27.399C31.428 26.9584 31.9162 26.5583 32.4967 26.1921L32.4988 26.1911C32.9126 25.9357 33.3435 25.7091 33.7883 25.5128L32.7364 22.7448ZM31.32 29.5137L29.5364 31.8006C29.9592 32.1872 30.4025 32.4842 30.8308 32.7326L30.8362 32.7353L30.8416 32.7386C32.2628 33.5469 33.7284 34.0032 35.087 34.4363L35.8679 31.5646C34.5098 31.1315 33.2294 30.7136 32.1322 30.0904C31.8179 29.9079 31.5425 29.7173 31.32 29.5137ZM38.5209 32.3724L37.7584 35.249L38.1191 35.3613L38.5619 35.5028C40.0275 35.9796 41.4315 36.4889 42.6865 37.1936L43.9598 34.5368C42.4424 33.6841 40.8672 33.1268 39.3493 32.6333L39.3449 32.6322L38.8903 32.4869L38.5209 32.3724ZM46.5491 36.5304L44.5927 38.6472C45.0549 39.1478 45.401 39.7499 45.5695 40.372L45.5706 40.3752L45.5717 40.3801C45.7726 41.1064 45.7731 41.9607 45.616 42.8236L48.3289 43.4025C48.5503 42.1842 48.586 40.8467 48.222 39.5264C47.905 38.3589 47.3002 37.3448 46.5491 36.5304ZM44.6688 44.6272C44.3698 44.9429 44.0395 45.2274 43.6828 45.4761H43.6817C42.7097 46.1597 41.5822 46.6749 40.3844 47.1177L41.2776 49.9494C42.5876 49.4651 43.9328 48.8711 45.1899 47.9865L45.1931 47.9838L45.1948 47.9828C45.711 47.6213 46.1886 47.2074 46.6198 46.7478L44.6688 44.6272ZM37.8432 47.9153C36.1082 48.3818 34.3348 48.7371 32.5399 49.0385L32.9632 51.9971C34.8106 51.6866 36.6655 51.3156 38.509 50.8199L37.8432 47.9153ZM29.8393 49.4467C28.0325 49.6935 26.2159 49.8949 24.394 50.0666L24.6326 53.0485C26.4827 52.8746 28.336 52.67 30.1865 52.4167L29.8393 49.4467ZM21.6556 50.3015C19.8299 50.4462 17.9998 50.564 16.1681 50.6633L16.3064 53.6528C18.1559 53.5529 20.007 53.4335 21.8576 53.2866L21.6556 50.3015ZM13.4158 50.7983C12.3179 50.8496 11.2174 50.8917 10.1142 50.9306L10.2049 53.9228C11.315 53.8846 12.4249 53.8403 13.5346 53.7899L13.4158 50.7983Z" fill="#2C97CF"/>
</g>
<defs>
<clipPath id="clip0_245_1186">
<rect width="54" height="54" fill="white"/>
</clipPath>
</defs>
</svg>
