<svg width="24" height="24" viewBox="0 0 24 24" fill="none" xmlns="http://www.w3.org/2000/svg">
<g id="pepicons-print:dots-x">
<g id="Group">
<path id="Vector" opacity="0.2" d="M7.8 15.6C7.32261 15.6 6.86477 15.4104 6.52721 15.0728C6.18964 14.7352 6 14.2774 6 13.8C6 13.3226 6.18964 12.8648 6.52721 12.5272C6.86477 12.1896 7.32261 12 7.8 12H21C21.4774 12 21.9352 12.1896 22.2728 12.5272C22.6104 12.8648 22.8 13.3226 22.8 13.8C22.8 14.2774 22.6104 14.7352 22.2728 15.0728C21.9352 15.4104 21.4774 15.6 21 15.6H7.8Z" fill="#2C97CF" fill-opacity="0.8"/>
<path id="Vector_2" d="M16.7998 12.2998C16.7998 11.902 16.9578 11.5204 17.2391 11.2391C17.5204 10.9578 17.902 10.7998 18.2998 10.7998C18.6976 10.7998 19.0792 10.9578 19.3605 11.2391C19.6418 11.5204 19.7998 11.902 19.7998 12.2998C19.7998 12.6976 19.6418 13.0792 19.3605 13.3605C19.0792 13.6418 18.6976 13.7998 18.2998 13.7998C17.902 13.7998 17.5204 13.6418 17.2391 13.3605C16.9578 13.0792 16.7998 12.6976 16.7998 12.2998ZM10.7998 12.2998C10.7998 11.902 10.9578 11.5204 11.2391 11.2391C11.5204 10.9578 11.902 10.7998 12.2998 10.7998C12.6976 10.7998 13.0792 10.9578 13.3605 11.2391C13.6418 11.5204 13.7998 11.902 13.7998 12.2998C13.7998 12.6976 13.6418 13.0792 13.3605 13.3605C13.0792 13.6418 12.6976 13.7998 12.2998 13.7998C11.902 13.7998 11.5204 13.6418 11.2391 13.3605C10.9578 13.0792 10.7998 12.6976 10.7998 12.2998ZM4.7998 12.2998C4.7998 11.902 4.95784 11.5204 5.23914 11.2391C5.52045 10.9578 5.90198 10.7998 6.2998 10.7998C6.69763 10.7998 7.07916 10.9578 7.36047 11.2391C7.64177 11.5204 7.7998 11.902 7.7998 12.2998C7.7998 12.6976 7.64177 13.0792 7.36047 13.3605C7.07916 13.6418 6.69763 13.7998 6.2998 13.7998C5.90198 13.7998 5.52045 13.6418 5.23914 13.3605C4.95784 13.0792 4.7998 12.6976 4.7998 12.2998Z" fill="#2C97CF" fill-opacity="0.8"/>
</g>
</g>
</svg>
