<svg width="25" height="24" viewBox="0 0 25 24" fill="none" xmlns="http://www.w3.org/2000/svg">
<g id="ph:dots-three-bold">
<path id="Vector" d="M13.8882 12C13.8882 12.2967 13.8002 12.5867 13.6354 12.8334C13.4706 13.08 13.2363 13.2723 12.9622 13.3858C12.6881 13.4994 12.3865 13.5291 12.0955 13.4712C11.8046 13.4133 11.5373 13.2704 11.3275 13.0607C11.1177 12.8509 10.9749 12.5836 10.917 12.2926C10.8591 12.0017 10.8888 11.7001 11.0024 11.426C11.1159 11.1519 11.3082 10.9176 11.5548 10.7528C11.8015 10.588 12.0915 10.5 12.3882 10.5C12.786 10.5 13.1675 10.658 13.4488 10.9393C13.7301 11.2206 13.8882 11.6022 13.8882 12ZM6.01318 10.5C5.71651 10.5 5.4265 10.588 5.17983 10.7528C4.93316 10.9176 4.7409 11.1519 4.62736 11.426C4.51383 11.7001 4.48413 12.0017 4.54201 12.2926C4.59988 12.5836 4.74275 12.8509 4.95252 13.0607C5.1623 13.2704 5.42958 13.4133 5.72055 13.4712C6.01152 13.5291 6.31312 13.4994 6.58721 13.3858C6.8613 13.2723 7.09557 13.08 7.26039 12.8334C7.42521 12.5867 7.51318 12.2967 7.51318 12C7.51318 11.6022 7.35515 11.2206 7.07384 10.9393C6.79254 10.658 6.41101 10.5 6.01318 10.5ZM18.7632 10.5C18.4665 10.5 18.1765 10.588 17.9298 10.7528C17.6832 10.9176 17.4909 11.1519 17.3774 11.426C17.2638 11.7001 17.2341 12.0017 17.292 12.2926C17.3499 12.5836 17.4927 12.8509 17.7025 13.0607C17.9123 13.2704 18.1796 13.4133 18.4705 13.4712C18.7615 13.5291 19.0631 13.4994 19.3372 13.3858C19.6113 13.2723 19.8456 13.08 20.0104 12.8334C20.1752 12.5867 20.2632 12.2967 20.2632 12C20.2632 11.6022 20.1051 11.2206 19.8238 10.9393C19.5425 10.658 19.161 10.5 18.7632 10.5Z" fill="#2C97CF" fill-opacity="0.8"/>
</g>
</svg>
