<svg width="54" height="54" viewBox="0 0 54 54" fill="none" xmlns="http://www.w3.org/2000/svg">
<g id="solar:danger-triangle-broken">
<g id="Group">
<path id="Vector" d="M14.1975 20.25C19.3365 11.25 22.4258 6.75 27 6.75C32.1975 6.75 35.4825 12.5707 42.048 24.2122L42.867 25.6635C48.3233 35.3385 51.0525 40.176 48.5865 43.713C46.1205 47.25 40.0185 47.25 27.819 47.25H26.181C13.9815 47.25 7.87951 47.25 5.41351 43.713C3.27376 40.644 5.04676 36.5918 9.12151 29.25M27 18V29.25" stroke="#2C97CF" stroke-width="3.375" stroke-linecap="round"/>
<path id="Vector_2" d="M27 38.25C28.2426 38.25 29.25 37.2426 29.25 36C29.25 34.7574 28.2426 33.75 27 33.75C25.7574 33.75 24.75 34.7574 24.75 36C24.75 37.2426 25.7574 38.25 27 38.25Z" fill="#2C97CF"/>
</g>
</g>
</svg>
