<svg width="24" height="26" viewBox="0 0 24 26" fill="none" xmlns="http://www.w3.org/2000/svg">
<path d="M22.4813 19.7921L18.6804 15.8298L15.7569 14.5706C16.7304 13.1275 17.2519 11.4059 17.25 9.64165C17.25 4.89927 13.5491 1.04108 9 1.04108C4.45092 1.04108 0.75 4.89927 0.75 9.64165C0.75 14.384 4.45092 18.2422 9 18.2422C10.707 18.2443 12.3721 17.6912 13.7634 16.6601L14.9681 19.6996L18.7687 23.6621C19.0125 23.9162 19.3019 24.1178 19.6204 24.2554C19.9388 24.3929 20.2802 24.4637 20.6249 24.4637C20.9696 24.4637 21.311 24.3929 21.6295 24.2554C21.948 24.1179 22.2374 23.9163 22.4811 23.6622C22.7249 23.4081 22.9183 23.1064 23.0502 22.7744C23.1821 22.4424 23.25 22.0866 23.2501 21.7272C23.2501 21.3678 23.1822 21.012 23.0503 20.6799C22.9184 20.3479 22.725 20.0462 22.4813 19.7921ZM2.25 9.64165C2.25 5.76162 5.27812 2.60482 9 2.60482C12.7219 2.60482 15.75 5.76162 15.75 9.64165C15.75 13.5217 12.7219 16.6785 9 16.6785C5.27812 16.6785 2.25 13.5217 2.25 9.64165ZM21.4205 22.5564C21.2094 22.776 20.9233 22.8994 20.625 22.8994C20.3267 22.8994 20.0406 22.776 19.8295 22.5564L16.2402 18.8146L15.1201 15.9883L17.8312 17.156L21.4206 20.8978C21.6313 21.1179 21.7495 21.4162 21.7495 21.7271C21.7495 22.0381 21.6312 22.3363 21.4205 22.5564Z" fill="#2C97CF"/>
</svg>
