<svg width="24" height="24" viewBox="0 0 24 24" fill="none" xmlns="http://www.w3.org/2000/svg">
<g id="arcticons:onlyoffice-documents">
<path id="Vector" d="M20.179 6.2905L13.1815 3.02C12.8014 2.84233 12.3869 2.75021 11.9673 2.75012C11.5477 2.75004 11.1332 2.84199 10.753 3.0195L3.82153 6.2545C3.62367 6.34682 3.45626 6.49367 3.33895 6.67782C3.22163 6.86196 3.15929 7.07575 3.15924 7.29409C3.15919 7.51242 3.22143 7.72624 3.33865 7.91044C3.45587 8.09464 3.62321 8.24158 3.82103 8.334L10.8185 11.6045C11.1986 11.7822 11.6131 11.8744 12.0327 11.8746C12.4523 11.8748 12.8668 11.7829 13.247 11.6055L20.1785 8.37C20.3764 8.27767 20.5438 8.13082 20.6611 7.94668C20.7784 7.76253 20.8408 7.54874 20.8408 7.3304C20.8409 7.11207 20.7786 6.89825 20.6614 6.71405C20.5442 6.52985 20.3768 6.38291 20.179 6.2905Z" stroke="white" stroke-opacity="0.8" stroke-width="1.125" stroke-linecap="round" stroke-linejoin="round"/>
<path id="Vector_2" d="M6.61351 9.63898L3.82151 10.942C3.62352 11.0342 3.45597 11.1811 3.33856 11.3653C3.22114 11.5495 3.15874 11.7634 3.15869 11.9818C3.15864 12.2003 3.22093 12.4142 3.33826 12.5984C3.45558 12.7827 3.62306 12.9296 3.82101 13.022L10.8185 16.292C11.1986 16.4697 11.6131 16.5619 12.0327 16.5621C12.4522 16.5623 12.8668 16.4704 13.247 16.293L20.1785 13.058C20.3764 12.9657 20.5438 12.8188 20.6611 12.6347C20.7784 12.4505 20.8407 12.2367 20.8408 12.0184C20.8409 11.8 20.7786 11.5862 20.6614 11.402C20.5442 11.2178 20.3768 11.0709 20.179 10.9785L17.3865 9.67348" stroke="white" stroke-opacity="0.8" stroke-width="1.125" stroke-linecap="round" stroke-linejoin="round"/>
<path id="Vector_3" d="M6.61351 14.327L3.82151 15.63C3.62352 15.7223 3.45597 15.8691 3.33856 16.0533C3.22114 16.2375 3.15874 16.4514 3.15869 16.6699C3.15864 16.8883 3.22093 17.1022 3.33826 17.2865C3.45558 17.4707 3.62306 17.6177 3.82101 17.71L10.8185 20.98C11.1986 21.1577 11.6131 21.2498 12.0327 21.2499C12.4523 21.25 12.8668 21.158 13.247 20.9805L20.1785 17.7455C20.3764 17.6532 20.5438 17.5064 20.6611 17.3222C20.7784 17.1381 20.8407 16.9243 20.8408 16.7059C20.8409 16.4876 20.7786 16.2738 20.6614 16.0896C20.5442 15.9054 20.3768 15.7584 20.179 15.666L17.3865 14.361" stroke="white" stroke-opacity="0.8" stroke-width="1.125" stroke-linecap="round" stroke-linejoin="round"/>
</g>
</svg>
