<svg width="24" height="24" viewBox="0 0 24 24" fill="none" xmlns="http://www.w3.org/2000/svg">
<g id="arcticons:caynaxsportstracker" opacity="0.8" clip-path="url(#clip0_245_1224)">
<path id="Vector" d="M8.50347 1.72998C7.12302 1.72998 5.79911 2.27836 4.82298 3.25449C3.84685 4.23062 3.29847 5.55453 3.29847 6.93498C3.2813 7.5983 3.40822 8.25746 3.67047 8.86698C4.80797 11.0345 6.97447 14.053 8.53797 16.4115C9.93097 14.0825 12.534 10.8545 13.335 8.86648C13.6513 8.07692 13.7691 7.22185 13.6783 6.37617C13.5874 5.53048 13.2905 4.71997 12.8137 4.01565C12.3369 3.31132 11.6946 2.73467 10.9432 2.33619C10.1917 1.93771 9.35403 1.72956 8.50347 1.72998Z" stroke="white" stroke-width="1.125" stroke-linecap="round" stroke-linejoin="round"/>
<path id="Vector_2" d="M6.26099 8.55501C6.89833 8.55501 7.41499 8.03835 7.41499 7.40101C7.41499 6.76367 6.89833 6.24701 6.26099 6.24701C5.62366 6.24701 5.10699 6.76367 5.10699 7.40101C5.10699 8.03835 5.62366 8.55501 6.26099 8.55501Z" stroke="white" stroke-width="1.125" stroke-linecap="round" stroke-linejoin="bevel"/>
<path id="Vector_3" d="M10.624 8.55501C11.2613 8.55501 11.778 8.03835 11.778 7.40101C11.778 6.76367 11.2613 6.24701 10.624 6.24701C9.98663 6.24701 9.46997 6.76367 9.46997 7.40101C9.46997 8.03835 9.98663 8.55501 10.624 8.55501Z" stroke="white" stroke-width="1.125" stroke-linecap="round" stroke-linejoin="bevel"/>
<path id="Vector_4" d="M9.49298 3.73547C9.70009 3.73547 9.86798 3.56758 9.86798 3.36047C9.86798 3.15337 9.70009 2.98547 9.49298 2.98547C9.28587 2.98547 9.11798 3.15337 9.11798 3.36047C9.11798 3.56758 9.28587 3.73547 9.49298 3.73547Z" fill="white"/>
<path id="Vector_5" d="M8.26099 7.53251C8.45482 6.95853 8.53349 6.35194 8.49249 5.74751L7.30499 5.62401C6.71699 5.42801 7.38999 4.39151 8.10099 3.88601C8.59699 3.64551 8.65249 3.98201 8.79149 4.20451C8.85108 4.41318 8.96856 4.6007 9.13031 4.74538C9.29207 4.89006 9.49149 4.98596 9.70549 5.02201C10.197 5.04951 10.6 4.87201 10.5755 5.53201C10.0768 6.1524 9.43852 6.64607 8.71268 6.97272C7.98683 7.29936 7.19403 7.44972 6.39899 7.41151" stroke="white" stroke-width="1.125" stroke-linecap="round" stroke-linejoin="round"/>
<path id="Vector_6" d="M10.6075 7.55048L10.575 5.53198" stroke="white" stroke-width="1.125" stroke-linecap="round"/>
<path id="Vector_7" d="M2.40302 16.8465L8.53802 16.4115L15.49 10.6715L22.515 9.95148" stroke="white" stroke-width="1.125" stroke-linecap="round" stroke-linejoin="round"/>
<path id="Vector_8" d="M20.525 18.55L16.8375 14.4045L11.6905 13.8605" stroke="white" stroke-width="1.125" stroke-linecap="round" stroke-linejoin="round"/>
<path id="Vector_9" d="M8.78849 1.73798C11.2436 0.968577 13.8932 1.10475 16.2565 2.12179C18.6198 3.13883 20.5402 4.96935 21.6693 7.28121C22.7985 9.59307 23.0614 12.2331 22.4105 14.7222C21.7596 17.2114 20.238 19.3848 18.1218 20.848C16.0055 22.3113 13.4349 22.9674 10.8762 22.6974C8.31756 22.4274 5.94047 21.2492 4.17623 19.3764C2.412 17.5037 1.37753 15.0606 1.26053 12.4904C1.14352 9.92024 1.95172 7.39325 3.53849 5.36798" stroke="white" stroke-width="1.125" stroke-linecap="round" stroke-linejoin="round"/>
</g>
<defs>
<clipPath id="clip0_245_1224">
<rect width="24" height="24" fill="white"/>
</clipPath>
</defs>
</svg>
