<svg width="24" height="24" viewBox="0 0 24 24" fill="none" xmlns="http://www.w3.org/2000/svg">
<g id="clarity:employee-solid">
<g id="clarityEmployeeSolid0">
<path id="Vector" d="M11.24 10.7933C13.6185 10.7933 15.5466 8.86517 15.5466 6.48666C15.5466 4.10815 13.6185 2.17999 11.24 2.17999C8.86145 2.17999 6.93329 4.10815 6.93329 6.48666C6.93329 8.86517 8.86145 10.7933 11.24 10.7933Z" fill="white" fill-opacity="0.8"/>
<path id="Vector_2" d="M14 18.6667H18.6667V19.6H14V18.6667Z" fill="white" fill-opacity="0.8"/>
<path id="Vector_3" d="M9.99998 20V22C9.99998 22.1768 10.0702 22.3464 10.1952 22.4714C10.3203 22.5964 10.4898 22.6666 10.6666 22.6666H22C22.1768 22.6666 22.3464 22.5964 22.4714 22.4714C22.5964 22.3464 22.6666 22.1768 22.6666 22V15.3333C22.6666 15.1565 22.5964 14.9869 22.4714 14.8619C22.3464 14.7369 22.1768 14.6666 22 14.6666H17.3333V13.6866C17.3333 13.5098 17.2631 13.3403 17.1381 13.2152C17.013 13.0902 16.8435 13.02 16.6666 13.02C16.4898 13.02 16.3203 13.0902 16.1952 13.2152C16.0702 13.3403 16 13.5098 16 13.6866V14.6666H14.6666V12.28C13.5338 12.0949 12.3879 12.0013 11.24 12C8.70851 11.9892 6.20541 12.5331 3.90665 13.5933C3.5283 13.7719 3.20912 14.0552 2.98696 14.4097C2.76481 14.7642 2.64901 15.175 2.65331 15.5933V20H9.99998ZM21.3333 21.3333H11.3333V16H16V16.28C16 16.4568 16.0702 16.6264 16.1952 16.7514C16.3203 16.8764 16.4898 16.9466 16.6666 16.9466C16.8435 16.9466 17.013 16.8764 17.1381 16.7514C17.2631 16.6264 17.3333 16.4568 17.3333 16.28V16H21.3333V21.3333Z" fill="white" fill-opacity="0.8"/>
</g>
</g>
</svg>
